<mxfile host="app.diagrams.net" agent="Mozilla/5.0 (Macintosh; Intel Mac OS X 10_15_7) AppleWebKit/537.36 (KHTML, like Gecko) Chrome/138.0.0.0 Safari/537.36" version="28.1.0">
  <diagram name="Page-1" id="H1b-c1hrCyANjDwlm_sq">
    <mxGraphModel dx="740" dy="481" grid="0" gridSize="10" guides="1" tooltips="1" connect="1" arrows="1" fold="1" page="1" pageScale="1" pageWidth="827" pageHeight="1169" math="0" shadow="0">
      <root>
        <mxCell id="0" />
        <mxCell id="1" parent="0" />
        <mxCell id="W2P6JRrs7vc50mE4FqRy-16" value="No" style="edgeStyle=orthogonalEdgeStyle;rounded=0;orthogonalLoop=1;jettySize=auto;html=1;shadow=0;" parent="1" source="W2P6JRrs7vc50mE4FqRy-7" target="W2P6JRrs7vc50mE4FqRy-15" edge="1">
          <mxGeometry relative="1" as="geometry" />
        </mxCell>
        <mxCell id="W2P6JRrs7vc50mE4FqRy-18" value="Yes" style="edgeStyle=orthogonalEdgeStyle;rounded=0;orthogonalLoop=1;jettySize=auto;html=1;shadow=0;" parent="1" source="W2P6JRrs7vc50mE4FqRy-7" target="W2P6JRrs7vc50mE4FqRy-17" edge="1">
          <mxGeometry relative="1" as="geometry" />
        </mxCell>
        <mxCell id="W2P6JRrs7vc50mE4FqRy-7" value="Does it need side effect or state?" style="rhombus;whiteSpace=wrap;html=1;strokeWidth=2;shadow=0;" parent="1" vertex="1">
          <mxGeometry x="360" y="369" width="120" height="120" as="geometry" />
        </mxCell>
        <mxCell id="W2P6JRrs7vc50mE4FqRy-43" value="" style="edgeStyle=orthogonalEdgeStyle;rounded=0;orthogonalLoop=1;jettySize=auto;html=1;" parent="1" source="W2P6JRrs7vc50mE4FqRy-13" target="W2P6JRrs7vc50mE4FqRy-7" edge="1">
          <mxGeometry relative="1" as="geometry" />
        </mxCell>
        <mxCell id="W2P6JRrs7vc50mE4FqRy-13" value="New React Component" style="strokeWidth=2;html=1;shape=mxgraph.flowchart.start_2;whiteSpace=wrap;shadow=0;" parent="1" vertex="1">
          <mxGeometry x="204" y="379" width="100" height="100" as="geometry" />
        </mxCell>
        <mxCell id="W2P6JRrs7vc50mE4FqRy-15" value="Stateless" style="rounded=1;whiteSpace=wrap;html=1;strokeWidth=2;shadow=0;" parent="1" vertex="1">
          <mxGeometry x="536" y="399" width="120" height="60" as="geometry" />
        </mxCell>
        <mxCell id="W2P6JRrs7vc50mE4FqRy-20" value="No" style="edgeStyle=orthogonalEdgeStyle;rounded=0;orthogonalLoop=1;jettySize=auto;html=1;shadow=0;" parent="1" source="W2P6JRrs7vc50mE4FqRy-17" target="W2P6JRrs7vc50mE4FqRy-19" edge="1">
          <mxGeometry relative="1" as="geometry" />
        </mxCell>
        <mxCell id="W2P6JRrs7vc50mE4FqRy-26" value="Yes" style="edgeStyle=orthogonalEdgeStyle;rounded=0;orthogonalLoop=1;jettySize=auto;html=1;shadow=0;" parent="1" source="W2P6JRrs7vc50mE4FqRy-17" target="W2P6JRrs7vc50mE4FqRy-25" edge="1">
          <mxGeometry relative="1" as="geometry" />
        </mxCell>
        <mxCell id="W2P6JRrs7vc50mE4FqRy-17" value="Will you reuse the stateful logic?" style="rhombus;whiteSpace=wrap;html=1;strokeWidth=2;shadow=0;" parent="1" vertex="1">
          <mxGeometry x="360" y="526" width="120" height="120" as="geometry" />
        </mxCell>
        <mxCell id="W2P6JRrs7vc50mE4FqRy-19" value="Stateful" style="rounded=1;whiteSpace=wrap;html=1;strokeWidth=2;shadow=0;" parent="1" vertex="1">
          <mxGeometry x="536" y="555" width="120" height="60" as="geometry" />
        </mxCell>
        <mxCell id="W2P6JRrs7vc50mE4FqRy-25" value="Custom Hook" style="rounded=1;whiteSpace=wrap;html=1;strokeWidth=2;shadow=0;" parent="1" vertex="1">
          <mxGeometry x="357.75" y="699" width="120" height="60" as="geometry" />
        </mxCell>
        <mxCell id="W2P6JRrs7vc50mE4FqRy-38" value="Yes" style="edgeStyle=orthogonalEdgeStyle;rounded=0;orthogonalLoop=1;jettySize=auto;html=1;" parent="1" edge="1">
          <mxGeometry relative="1" as="geometry">
            <mxPoint x="245" y="526" as="targetPoint" />
          </mxGeometry>
        </mxCell>
        <mxCell id="W2P6JRrs7vc50mE4FqRy-40" value="No" style="edgeStyle=orthogonalEdgeStyle;rounded=0;orthogonalLoop=1;jettySize=auto;html=1;" parent="1" edge="1">
          <mxGeometry relative="1" as="geometry">
            <mxPoint x="185" y="586" as="sourcePoint" />
          </mxGeometry>
        </mxCell>
      </root>
    </mxGraphModel>
  </diagram>
</mxfile>
